<svg width="20" height="20" viewBox="0 0 20 20" fill="none" xmlns="http://www.w3.org/2000/svg">
<path d="M17.9929 5H9.79286C9.54387 5.00166 9.29904 4.9362 9.0841 4.81051C8.86917 4.68481 8.69207 4.50353 8.57143 4.28571L6.72143 1.04286C6.54118 0.726297 6.28037 0.463072 5.96548 0.279911C5.6506 0.0967508 5.29285 0.000178251 4.92857 0H1.92143C1.41241 0.00188178 0.924783 0.204922 0.564852 0.564852C0.204922 0.924783 0.00188178 1.41241 0 1.92143V17.95C0.00189011 18.4943 0.219458 19.0158 0.605043 19.4C0.990627 19.7843 1.51279 20 2.05714 20H17.95C18.4931 19.9981 19.0134 19.7815 19.3975 19.3975C19.7815 19.0134 19.9981 18.4931 20 17.95V7.00714C20 6.47482 19.7885 5.96429 19.4121 5.58788C19.0357 5.21147 18.5252 5 17.9929 5ZM18.5714 17.95C18.5714 18.1148 18.506 18.2729 18.3894 18.3894C18.2729 18.506 18.1148 18.5714 17.95 18.5714H2.05714C1.97494 18.5724 1.89336 18.557 1.81714 18.5262C1.74092 18.4954 1.67157 18.4498 1.6131 18.392C1.55464 18.3342 1.50822 18.2653 1.47655 18.1895C1.44487 18.1136 1.42857 18.0322 1.42857 17.95V1.92143C1.42857 1.85671 1.44132 1.79262 1.46609 1.73282C1.49086 1.67302 1.52716 1.61869 1.57293 1.57293C1.61869 1.52716 1.67302 1.49086 1.73282 1.46609C1.79262 1.44132 1.85671 1.42857 1.92143 1.42857H4.92857C5.04149 1.4285 5.15243 1.45817 5.25023 1.51459C5.34804 1.57102 5.42926 1.65221 5.48571 1.75L7.35 5C7.59361 5.43363 7.94833 5.79454 8.37767 6.04561C8.80701 6.29669 9.29549 6.42888 9.79286 6.42857H17.9929C18.1463 6.42857 18.2935 6.48953 18.402 6.59803C18.5105 6.70653 18.5714 6.8537 18.5714 7.00714V17.95Z" fill="white"/>
<path d="M6.42768 15.7144H3.57053C3.38109 15.7144 3.19941 15.7896 3.06546 15.9236C2.9315 16.0575 2.85625 16.2392 2.85625 16.4286C2.85625 16.6181 2.9315 16.7998 3.06546 16.9337C3.19941 17.0677 3.38109 17.1429 3.57053 17.1429H6.42768C6.61712 17.1429 6.7988 17.0677 6.93275 16.9337C7.06671 16.7998 7.14196 16.6181 7.14196 16.4286C7.14196 16.2392 7.06671 16.0575 6.93275 15.9236C6.7988 15.7896 6.61712 15.7144 6.42768 15.7144Z" fill="white"/>
</svg>
