<svg width="57" height="38" viewBox="0 0 57 38" fill="none" xmlns="http://www.w3.org/2000/svg">
<path d="M4.21499 25.1364H1.95135V12.0273H4.21499V25.1364ZM7.89453 27.7545C8.37938 27.7545 8.80968 27.7364 9.18544 27.7C9.56726 27.6697 9.90362 27.6212 10.1945 27.5545C10.4915 27.4939 10.7491 27.4121 10.9673 27.3091C11.1915 27.2121 11.3854 27.0939 11.5491 26.9545C11.8036 26.7485 11.9945 26.5091 12.1218 26.2364C12.2551 25.9636 12.3339 25.597 12.3582 25.1364H10.9582C10.6551 25.1364 10.346 25.1121 10.0309 25.0636C9.71574 25.0152 9.41271 24.9333 9.1218 24.8182C8.83089 24.697 8.55514 24.5424 8.29453 24.3545C8.03999 24.1667 7.81574 23.9364 7.6218 23.6636C7.43393 23.3848 7.28241 23.0576 7.16726 22.6818C7.05817 22.3061 7.00362 21.8758 7.00362 21.3909C7.00362 20.9727 7.03999 20.603 7.11271 20.2818C7.18544 19.9545 7.27635 19.6667 7.38544 19.4182C7.50059 19.1697 7.62786 18.9545 7.76726 18.7727C7.90665 18.5848 8.03999 18.4212 8.16726 18.2818C8.53089 17.9182 8.94302 17.6394 9.40362 17.4455C9.86423 17.2455 10.3612 17.1455 10.8945 17.1455C11.5551 17.1455 12.1188 17.2606 12.5854 17.4909C13.0582 17.7152 13.443 18.0273 13.74 18.4273C14.043 18.8273 14.2642 19.303 14.4036 19.8545C14.543 20.4 14.6127 20.9939 14.6127 21.6364V24.8636C14.6127 25.7667 14.4763 26.5242 14.2036 27.1364C13.9309 27.7545 13.5157 28.2848 12.9582 28.7273C12.6794 28.9455 12.3763 29.1333 12.0491 29.2909C11.7218 29.4545 11.3551 29.5909 10.9491 29.7C10.543 29.8091 10.0885 29.8879 9.58544 29.9364C9.08847 29.9909 8.52483 30.0182 7.89453 30.0182V27.7545ZM10.8945 19.4091C10.3794 19.4091 9.97029 19.5697 9.66726 19.8909C9.36423 20.2121 9.21271 20.7121 9.21271 21.3909C9.21271 21.6576 9.26423 21.8848 9.36726 22.0727C9.47635 22.2606 9.61271 22.4152 9.77635 22.5364C9.94605 22.6515 10.1339 22.7364 10.34 22.7909C10.546 22.8455 10.7521 22.8727 10.9582 22.8727H12.3582V21.6364C12.3582 21.2909 12.3309 20.997 12.2763 20.7545C12.2218 20.5061 12.1491 20.3 12.0582 20.1364C11.9733 19.9727 11.8733 19.8424 11.7582 19.7455C11.6491 19.6485 11.54 19.5758 11.4309 19.5273C11.3279 19.4788 11.2279 19.4485 11.1309 19.4364C11.0339 19.4182 10.9551 19.4091 10.8945 19.4091ZM21.3638 25.1364H19.1002V13.3636H21.3638V25.1364ZM23.9911 12.0545H19.5366C19.179 12.0545 18.876 12.0667 18.6275 12.0909C18.3851 12.1091 18.176 12.1636 18.0002 12.2545C17.8305 12.3394 17.6881 12.4667 17.5729 12.6364C17.4638 12.8 17.3638 13.0273 17.2729 13.3182L15.582 12.8182C15.7396 12.2727 15.9548 11.8273 16.2275 11.4818C16.5002 11.1364 16.8275 10.8667 17.2093 10.6727C17.5366 10.5152 17.8911 10.4121 18.2729 10.3636C18.6548 10.3091 19.076 10.2818 19.5366 10.2818H23.9911V12.0545Z" fill="white"/>
<line x1="45.5" y1="1.5" x2="45.5" y2="36.5" stroke="white" stroke-width="3" stroke-linecap="round"/>
<line x1="55.5" y1="11.5" x2="55.5" y2="26.5" stroke="white" stroke-width="3" stroke-linecap="round"/>
<line x1="36.5" y1="11.5" x2="36.5" y2="26.5" stroke="white" stroke-width="3" stroke-linecap="round"/>
</svg>
