<svg width="22" height="25" viewBox="0 0 22 25" fill="none" xmlns="http://www.w3.org/2000/svg">
<path d="M13.2886 7.77771V10.4486C13.2886 12.9777 11.2355 15.0309 8.71143 15.0309C6.18232 15.0309 4.13422 12.9853 4.13422 10.4587V6.18024C4.13422 3.65366 6.18232 1.6081 8.71143 1.6081C9.13168 1.6081 9.47092 1.26886 9.47092 0.848604C9.47092 0.428351 9.13168 0.0891113 8.71143 0.0891113C5.34434 0.0891113 2.61523 2.81569 2.61523 6.18024V10.4587C2.61523 13.8233 5.34434 16.5498 8.71143 16.5498C12.0734 16.5498 14.8076 13.8157 14.8076 10.4486V7.77771C14.8076 7.35745 14.4684 7.01821 14.0481 7.01821C13.6279 7.01821 13.2886 7.35745 13.2886 7.77771Z" fill="white"/>
<path d="M15.9038 9.82565V10.7396C15.9038 14.7092 12.6835 17.9244 8.71138 17.9244C4.73923 17.9244 1.51898 14.7041 1.51898 10.732V9.85857C1.51898 9.43831 1.17974 9.09907 0.759492 9.09907C0.33924 9.09907 0 9.43831 0 9.85857V10.732C0 15.5446 3.89873 19.4434 8.71138 19.4434C13.524 19.4434 17.4228 15.5472 17.4228 10.7396V9.82565C17.4228 9.4054 17.0835 9.06616 16.6633 9.06616C16.243 9.06616 15.9038 9.40793 15.9038 9.82565Z" fill="white"/>
<path d="M8.41768 19.8281V22.899V23.6585H9.93666V22.899V19.8281V19.0686H8.41768V19.8281Z" fill="white"/>
<path d="M4.87331 24.8105H13.3543C13.7746 24.8105 14.1138 24.4712 14.1138 24.051C14.1138 23.6307 13.7746 23.2915 13.3543 23.2915H4.87331C4.45306 23.2915 4.11382 23.6307 4.11382 24.051C4.11382 24.4712 4.45306 24.8105 4.87331 24.8105Z" fill="white"/>
<path d="M6.16457 6.07636H9.53924C9.9595 6.07636 10.2987 5.73712 10.2987 5.31687C10.2987 4.89661 9.9595 4.55737 9.53924 4.55737H6.16457C5.74431 4.55737 5.40508 4.89661 5.40508 5.31687C5.40508 5.73459 5.74431 6.07636 6.16457 6.07636Z" fill="white"/>
<path d="M12.4912 7.49152L15.5393 1.08647C15.7191 0.706722 15.5596 0.253558 15.1799 0.0738118C14.8001 -0.105935 14.3469 0.0535587 14.1672 0.433305L11.1191 6.83836C10.9394 7.2181 11.0988 7.67127 11.4786 7.85101C11.8583 8.03076 12.3115 7.86873 12.4912 7.49152Z" fill="white"/>
<path d="M14.1747 1.09918L16.4532 5.65613C16.6405 6.03081 17.0962 6.18271 17.4709 5.99537C17.8456 5.80803 17.9975 5.35233 17.8101 4.97765L15.5317 0.420698C15.3443 0.0460151 14.8886 -0.105883 14.5139 0.0814581C14.1393 0.2688 13.9874 0.724495 14.1747 1.09918Z" fill="white"/>
<path d="M17.2127 6.07636H21.2405C21.6608 6.07636 22 5.73712 22 5.31687C22 4.89661 21.6608 4.55737 21.2405 4.55737H17.2127C16.7924 4.55737 16.4532 4.89661 16.4532 5.31687C16.4532 5.73459 16.795 6.07636 17.2127 6.07636Z" fill="white"/>
<path d="M12.2784 6.56235L10.0151 4.72691C9.68852 4.46362 9.21004 4.51172 8.94675 4.8383C8.68345 5.16489 8.73156 5.64337 9.05814 5.90666L11.3214 7.7421C11.648 8.00539 12.1265 7.95729 12.3898 7.6307C12.6556 7.30412 12.605 6.82564 12.2784 6.56235Z" fill="white"/>
</svg>
