<svg width="17" height="21" viewBox="0 0 17 21" fill="none" xmlns="http://www.w3.org/2000/svg">
<path d="M7.8061 4.14507L10.0299 1.92129C11.4361 0.678582 13.5291 0.809394 14.7718 2.18291C15.9164 3.42561 15.9164 5.35507 14.7718 6.63048L12.5153 8.85427L13.202 9.54103L15.4585 7.28454C17.1264 5.6167 17.061 2.86967 15.3604 1.20183C13.6926 -0.400608 11.0437 -0.400608 9.37583 1.20183L7.11934 3.42561C5.4515 5.12616 5.4515 7.84048 7.11934 9.54103L7.8061 8.85427C6.53069 7.54616 6.53069 5.45318 7.8061 4.14507Z" fill="#8F8F8F"/>
<path d="M7.41368 19.0575L9.67017 16.8337C11.338 15.1331 11.338 12.4188 9.67017 10.751L8.98341 11.4377C10.2915 12.7458 10.2915 14.8388 8.98341 16.1469L6.72693 18.3707C5.41882 19.6788 3.32584 19.6788 2.01773 18.3707C0.709621 17.0626 0.709621 14.9696 2.01773 13.6615L4.27422 11.4377L3.58746 10.751L1.36368 12.9748C-0.36957 14.6099 -0.467677 17.3242 1.16746 19.0575C2.8026 20.7907 5.51692 20.8888 7.25017 19.2537C7.31557 19.1556 7.38098 19.1229 7.41368 19.0575Z" fill="#8F8F8F"/>
<path d="M11.4834 7.79553L10.7896 7.10181L5.3786 12.5128L6.07232 13.2066L11.4834 7.79553Z" fill="#8F8F8F"/>
</svg>
